solid Default
  facet normal -6.919800e-17 -1.000000e+00 -2.449294e-16
    outer loop
      vertex -1.590000e+01 5.100000e+00 5.329071e-15
      vertex -1.590000e+01 5.100000e+00 8.000000e+00
      vertex -4.250000e+01 5.100000e+00 8.000000e+00
    endloop
  endfacet
  facet normal -6.919800e-17 -1.000000e+00 -2.449294e-16
    outer loop
      vertex -4.250000e+01 5.100000e+00 8.000000e+00
      vertex -4.250000e+01 5.100000e+00 1.776357e-15
      vertex -1.590000e+01 5.100000e+00 5.329071e-15
    endloop
  endfacet
  facet normal -1.000000e+00 -6.123234e-17 -1.224647e-16
    outer loop
      vertex -1.590000e+01 -2.000000e+01 -8.881784e-16
      vertex -1.590000e+01 -2.000000e+01 8.000000e+00
      vertex -1.590000e+01 5.100000e+00 8.000000e+00
    endloop
  endfacet
  facet normal -1.000000e+00 -6.123234e-17 -1.224647e-16
    outer loop
      vertex -1.590000e+01 5.100000e+00 8.000000e+00
      vertex -1.590000e+01 5.100000e+00 5.329071e-15
      vertex -1.590000e+01 -2.000000e+01 -8.881784e-16
    endloop
  endfacet
  facet normal -5.758434e-17 -1.000000e+00 -2.449294e-16
    outer loop
      vertex 4.250000e+01 -2.000000e+01 6.217249e-15
      vertex 4.250000e+01 -2.000000e+01 8.000000e+00
      vertex -1.590000e+01 -2.000000e+01 8.000000e+00
    endloop
  endfacet
  facet normal -5.758434e-17 -1.000000e+00 -2.449294e-16
    outer loop
      vertex -1.590000e+01 -2.000000e+01 8.000000e+00
      vertex -1.590000e+01 -2.000000e+01 -8.881784e-16
      vertex 4.250000e+01 -2.000000e+01 6.217249e-15
    endloop
  endfacet
  facet normal 1.224647e-16 2.449294e-16 -1.000000e+00
    outer loop
      vertex -4.250000e+01 2.000000e+01 5.329071e-15
      vertex 4.250000e+01 2.000000e+01 1.598721e-14
      vertex -1.590000e+01 5.100000e+00 5.329071e-15
    endloop
  endfacet
  facet normal 1.224647e-16 2.449294e-16 -1.000000e+00
    outer loop
      vertex 4.250000e+01 -2.000000e+01 6.217249e-15
      vertex -1.590000e+01 -2.000000e+01 -8.881784e-16
      vertex -1.590000e+01 5.100000e+00 5.329071e-15
    endloop
  endfacet
  facet normal 1.224647e-16 2.449294e-16 -1.000000e+00
    outer loop
      vertex -1.590000e+01 5.100000e+00 5.329071e-15
      vertex 4.250000e+01 2.000000e+01 1.598721e-14
      vertex 4.250000e+01 -2.000000e+01 6.217249e-15
    endloop
  endfacet
  facet normal 1.224647e-16 2.449294e-16 -1.000000e+00
    outer loop
      vertex -1.590000e+01 5.100000e+00 5.329071e-15
      vertex -4.250000e+01 5.100000e+00 1.776357e-15
      vertex -4.250000e+01 2.000000e+01 5.329071e-15
    endloop
  endfacet
  facet normal 1.000000e+00 2.347047e-16 1.224647e-16
    outer loop
      vertex 4.250000e+01 2.000000e+01 1.598721e-14
      vertex 4.250000e+01 2.000000e+01 8.000000e+00
      vertex 4.250000e+01 -2.000000e+01 8.000000e+00
    endloop
  endfacet
  facet normal 1.000000e+00 2.347047e-16 1.224647e-16
    outer loop
      vertex 4.250000e+01 -2.000000e+01 8.000000e+00
      vertex 4.250000e+01 -2.000000e+01 6.217249e-15
      vertex 4.250000e+01 2.000000e+01 1.598721e-14
    endloop
  endfacet
  facet normal -6.123234e-17 1.000000e+00 2.449294e-16
    outer loop
      vertex -4.250000e+01 2.000000e+01 5.329071e-15
      vertex -4.250000e+01 2.000000e+01 8.000000e+00
      vertex 4.250000e+01 2.000000e+01 8.000000e+00
    endloop
  endfacet
  facet normal -6.123234e-17 1.000000e+00 2.449294e-16
    outer loop
      vertex 4.250000e+01 2.000000e+01 8.000000e+00
      vertex 4.250000e+01 2.000000e+01 1.598721e-14
      vertex -4.250000e+01 2.000000e+01 5.329071e-15
    endloop
  endfacet
  facet normal -1.000000e+00 -9.926275e-16 -1.224647e-16
    outer loop
      vertex -4.250000e+01 5.100000e+00 1.776357e-15
      vertex -4.250000e+01 5.100000e+00 8.000000e+00
      vertex -4.250000e+01 2.000000e+01 8.000000e+00
    endloop
  endfacet
  facet normal -1.000000e+00 -9.926275e-16 -1.224647e-16
    outer loop
      vertex -4.250000e+01 2.000000e+01 8.000000e+00
      vertex -4.250000e+01 2.000000e+01 5.329071e-15
      vertex -4.250000e+01 5.100000e+00 1.776357e-15
    endloop
  endfacet
  facet normal -1.224647e-16 -2.449294e-16 1.000000e+00
    outer loop
      vertex -1.590000e+01 -2.000000e+01 8.000000e+00
      vertex 4.250000e+01 -2.000000e+01 8.000000e+00
      vertex 3.740000e+01 -1.290000e+01 8.000000e+00
    endloop
  endfacet
  facet normal -1.224647e-16 -2.449294e-16 1.000000e+00
    outer loop
      vertex 4.250000e+01 2.000000e+01 8.000000e+00
      vertex 3.740000e+01 1.490000e+01 8.000000e+00
      vertex 3.740000e+01 -1.290000e+01 8.000000e+00
    endloop
  endfacet
  facet normal -1.224647e-16 -2.449294e-16 1.000000e+00
    outer loop
      vertex -1.590000e+01 5.100000e+00 8.000000e+00
      vertex -1.590000e+01 -2.000000e+01 8.000000e+00
      vertex -1.080000e+01 -1.290000e+01 8.000000e+00
    endloop
  endfacet
  facet normal -1.224647e-16 -2.449294e-16 1.000000e+00
    outer loop
      vertex 3.740000e+01 -1.290000e+01 8.000000e+00
      vertex 4.250000e+01 -2.000000e+01 8.000000e+00
      vertex 4.250000e+01 2.000000e+01 8.000000e+00
    endloop
  endfacet
  facet normal -1.224647e-16 -2.449294e-16 1.000000e+00
    outer loop
      vertex 4.250000e+01 2.000000e+01 8.000000e+00
      vertex 2.290000e+01 1.490000e+01 8.000000e+00
      vertex 3.240000e+01 1.490000e+01 8.000000e+00
    endloop
  endfacet
  facet normal -1.224647e-16 -2.449294e-16 1.000000e+00
    outer loop
      vertex 2.290000e+01 1.490000e+01 8.000000e+00
      vertex 2.290000e+01 4.600000e+00 8.000000e+00
      vertex 3.240000e+01 4.600000e+00 8.000000e+00
    endloop
  endfacet
  facet normal -1.224647e-16 -2.449294e-16 1.000000e+00
    outer loop
      vertex 3.740000e+01 -1.290000e+01 8.000000e+00
      vertex -1.080000e+01 -1.290000e+01 8.000000e+00
      vertex -1.590000e+01 -2.000000e+01 8.000000e+00
    endloop
  endfacet
  facet normal -1.224647e-16 -2.449294e-16 1.000000e+00
    outer loop
      vertex 3.240000e+01 4.600000e+00 8.000000e+00
      vertex 3.240000e+01 1.490000e+01 8.000000e+00
      vertex 2.290000e+01 1.490000e+01 8.000000e+00
    endloop
  endfacet
  facet normal -1.224647e-16 -2.449294e-16 1.000000e+00
    outer loop
      vertex 3.240000e+01 1.490000e+01 8.000000e+00
      vertex 3.740000e+01 1.490000e+01 8.000000e+00
      vertex 4.250000e+01 2.000000e+01 8.000000e+00
    endloop
  endfacet
  facet normal -1.224647e-16 -2.449294e-16 1.000000e+00
    outer loop
      vertex 4.250000e+01 2.000000e+01 8.000000e+00
      vertex -4.900001e+00 1.490000e+01 8.000000e+00
      vertex 4.600000e+00 1.490000e+01 8.000000e+00
    endloop
  endfacet
  facet normal -1.224647e-16 -2.449294e-16 1.000000e+00
    outer loop
      vertex 4.600000e+00 1.490000e+01 8.000000e+00
      vertex 2.290000e+01 1.490000e+01 8.000000e+00
      vertex 4.250000e+01 2.000000e+01 8.000000e+00
    endloop
  endfacet
  facet normal -1.224647e-16 -2.449294e-16 1.000000e+00
    outer loop
      vertex 4.600000e+00 4.600000e+00 8.000000e+00
      vertex 4.600000e+00 1.490000e+01 8.000000e+00
      vertex -4.900001e+00 1.490000e+01 8.000000e+00
    endloop
  endfacet
  facet normal -1.224647e-16 -2.449294e-16 1.000000e+00
    outer loop
      vertex -4.900001e+00 1.490000e+01 8.000000e+00
      vertex -4.900001e+00 4.600000e+00 8.000000e+00
      vertex 4.600000e+00 4.600000e+00 8.000000e+00
    endloop
  endfacet
  facet normal -1.224647e-16 -2.449294e-16 1.000000e+00
    outer loop
      vertex -4.250000e+01 2.000000e+01 8.000000e+00
      vertex -3.740000e+01 1.490000e+01 8.000000e+00
      vertex -4.900001e+00 1.490000e+01 8.000000e+00
    endloop
  endfacet
  facet normal -1.224647e-16 -2.449294e-16 1.000000e+00
    outer loop
      vertex -4.250000e+01 2.000000e+01 8.000000e+00
      vertex -4.250000e+01 5.100000e+00 8.000000e+00
      vertex -3.740000e+01 1.050000e+01 8.000000e+00
    endloop
  endfacet
  facet normal -1.224647e-16 -2.449294e-16 1.000000e+00
    outer loop
      vertex -1.590000e+01 5.100000e+00 8.000000e+00
      vertex -1.080000e+01 1.050000e+01 8.000000e+00
      vertex -3.740000e+01 1.050000e+01 8.000000e+00
    endloop
  endfacet
  facet normal -1.224647e-16 -2.449294e-16 1.000000e+00
    outer loop
      vertex -4.900001e+00 1.490000e+01 8.000000e+00
      vertex 4.250000e+01 2.000000e+01 8.000000e+00
      vertex -4.250000e+01 2.000000e+01 8.000000e+00
    endloop
  endfacet
  facet normal -1.224647e-16 -2.449294e-16 1.000000e+00
    outer loop
      vertex -3.740000e+01 1.050000e+01 8.000000e+00
      vertex -4.250000e+01 5.100000e+00 8.000000e+00
      vertex -1.590000e+01 5.100000e+00 8.000000e+00
    endloop
  endfacet
  facet normal -1.224647e-16 -2.449294e-16 1.000000e+00
    outer loop
      vertex -3.740000e+01 1.050000e+01 8.000000e+00
      vertex -3.740000e+01 1.490000e+01 8.000000e+00
      vertex -4.250000e+01 2.000000e+01 8.000000e+00
    endloop
  endfacet
  facet normal -1.224647e-16 -2.449294e-16 1.000000e+00
    outer loop
      vertex -1.080000e+01 -1.290000e+01 8.000000e+00
      vertex -1.080000e+01 1.050000e+01 8.000000e+00
      vertex -1.590000e+01 5.100000e+00 8.000000e+00
    endloop
  endfacet
  facet normal 6.123234e-17 -1.000000e+00 -2.449294e-16
    outer loop
      vertex -3.740000e+01 1.050000e+01 1.500000e+01
      vertex -3.740000e+01 1.050000e+01 8.000000e+00
      vertex -1.080000e+01 1.050000e+01 8.000000e+00
    endloop
  endfacet
  facet normal 6.123234e-17 -1.000000e+00 -2.449294e-16
    outer loop
      vertex -1.080000e+01 1.050000e+01 8.000000e+00
      vertex -1.080000e+01 1.050000e+01 1.500000e+01
      vertex -3.740000e+01 1.050000e+01 1.500000e+01
    endloop
  endfacet
  facet normal -1.224647e-16 -2.449294e-16 1.000000e+00
    outer loop
      vertex -1.080000e+01 1.050000e+01 1.500000e+01
      vertex -1.080000e+01 -1.290000e+01 1.500000e+01
      vertex -4.900001e+00 4.600000e+00 1.500000e+01
    endloop
  endfacet
  facet normal -1.224647e-16 -2.449294e-16 1.000000e+00
    outer loop
      vertex -1.080000e+01 -1.290000e+01 1.500000e+01
      vertex 2.290000e+01 4.600000e+00 1.500000e+01
      vertex 4.600000e+00 4.600000e+00 1.500000e+01
    endloop
  endfacet
  facet normal -1.224647e-16 -2.449294e-16 1.000000e+00
    outer loop
      vertex 4.600000e+00 4.600000e+00 1.500000e+01
      vertex -4.900001e+00 4.600000e+00 1.500000e+01
      vertex -1.080000e+01 -1.290000e+01 1.500000e+01
    endloop
  endfacet
  facet normal -1.224647e-16 -2.449294e-16 1.000000e+00
    outer loop
      vertex 2.290000e+01 4.600000e+00 1.500000e+01
      vertex 2.290000e+01 1.490000e+01 1.500000e+01
      vertex 4.600000e+00 1.490000e+01 1.500000e+01
    endloop
  endfacet
  facet normal -1.224647e-16 -2.449294e-16 1.000000e+00
    outer loop
      vertex 3.740000e+01 -1.290000e+01 1.500000e+01
      vertex 3.240000e+01 4.600000e+00 1.500000e+01
      vertex 2.290000e+01 4.600000e+00 1.500000e+01
    endloop
  endfacet
  facet normal -1.224647e-16 -2.449294e-16 1.000000e+00
    outer loop
      vertex 3.740000e+01 1.490000e+01 1.500000e+01
      vertex 3.240000e+01 1.490000e+01 1.500000e+01
      vertex 3.240000e+01 4.600000e+00 1.500000e+01
    endloop
  endfacet
  facet normal -1.224647e-16 -2.449294e-16 1.000000e+00
    outer loop
      vertex 4.600000e+00 1.490000e+01 1.500000e+01
      vertex 4.600000e+00 4.600000e+00 1.500000e+01
      vertex 2.290000e+01 4.600000e+00 1.500000e+01
    endloop
  endfacet
  facet normal -1.224647e-16 -2.449294e-16 1.000000e+00
    outer loop
      vertex 3.240000e+01 4.600000e+00 1.500000e+01
      vertex 3.740000e+01 -1.290000e+01 1.500000e+01
      vertex 3.740000e+01 1.490000e+01 1.500000e+01
    endloop
  endfacet
  facet normal -1.224647e-16 -2.449294e-16 1.000000e+00
    outer loop
      vertex 2.290000e+01 4.600000e+00 1.500000e+01
      vertex -1.080000e+01 -1.290000e+01 1.500000e+01
      vertex 3.740000e+01 -1.290000e+01 1.500000e+01
    endloop
  endfacet
  facet normal -1.224647e-16 -2.449294e-16 1.000000e+00
    outer loop
      vertex -3.740000e+01 1.490000e+01 1.500000e+01
      vertex -3.740000e+01 1.050000e+01 1.500000e+01
      vertex -1.080000e+01 1.050000e+01 1.500000e+01
    endloop
  endfacet
  facet normal -1.224647e-16 -2.449294e-16 1.000000e+00
    outer loop
      vertex -1.080000e+01 1.050000e+01 1.500000e+01
      vertex -4.900001e+00 1.490000e+01 1.500000e+01
      vertex -3.740000e+01 1.490000e+01 1.500000e+01
    endloop
  endfacet
  facet normal -1.224647e-16 -2.449294e-16 1.000000e+00
    outer loop
      vertex -4.900001e+00 4.600000e+00 1.500000e+01
      vertex -4.900001e+00 1.490000e+01 1.500000e+01
      vertex -1.080000e+01 1.050000e+01 1.500000e+01
    endloop
  endfacet
  facet normal -1.000000e+00 -6.123234e-17 -1.224647e-16
    outer loop
      vertex -1.080000e+01 1.050000e+01 1.500000e+01
      vertex -1.080000e+01 1.050000e+01 8.000000e+00
      vertex -1.080000e+01 -1.290000e+01 8.000000e+00
    endloop
  endfacet
  facet normal -1.000000e+00 -6.123234e-17 -1.224647e-16
    outer loop
      vertex -1.080000e+01 -1.290000e+01 8.000000e+00
      vertex -1.080000e+01 -1.290000e+01 1.500000e+01
      vertex -1.080000e+01 1.050000e+01 1.500000e+01
    endloop
  endfacet
  facet normal 3.131631e-16 -1.000000e+00 -2.449294e-16
    outer loop
      vertex -1.080000e+01 -1.290000e+01 1.500000e+01
      vertex -1.080000e+01 -1.290000e+01 8.000000e+00
      vertex 3.740000e+01 -1.290000e+01 8.000000e+00
    endloop
  endfacet
  facet normal 3.131631e-16 -1.000000e+00 -2.449294e-16
    outer loop
      vertex 3.740000e+01 -1.290000e+01 8.000000e+00
      vertex 3.740000e+01 -1.290000e+01 1.500000e+01
      vertex -1.080000e+01 -1.290000e+01 1.500000e+01
    endloop
  endfacet
  facet normal 1.000000e+00 -1.883681e-16 1.224647e-16
    outer loop
      vertex 3.740000e+01 -1.290000e+01 1.500000e+01
      vertex 3.740000e+01 -1.290000e+01 8.000000e+00
      vertex 3.740000e+01 1.490000e+01 8.000000e+00
    endloop
  endfacet
  facet normal 1.000000e+00 -1.883681e-16 1.224647e-16
    outer loop
      vertex 3.740000e+01 1.490000e+01 8.000000e+00
      vertex 3.740000e+01 1.490000e+01 1.500000e+01
      vertex 3.740000e+01 -1.290000e+01 1.500000e+01
    endloop
  endfacet
  facet normal -6.123234e-17 1.000000e+00 2.449294e-16
    outer loop
      vertex 3.740000e+01 1.490000e+01 1.500000e+01
      vertex 3.740000e+01 1.490000e+01 8.000000e+00
      vertex 3.240000e+01 1.490000e+01 8.000000e+00
    endloop
  endfacet
  facet normal -6.123234e-17 1.000000e+00 2.449294e-16
    outer loop
      vertex 3.240000e+01 1.490000e+01 8.000000e+00
      vertex 3.240000e+01 1.490000e+01 1.500000e+01
      vertex 3.740000e+01 1.490000e+01 1.500000e+01
    endloop
  endfacet
  facet normal -1.000000e+00 6.124467e-16 -1.224647e-16
    outer loop
      vertex 3.240000e+01 1.490000e+01 1.500000e+01
      vertex 3.240000e+01 1.490000e+01 8.000000e+00
      vertex 3.240000e+01 4.600000e+00 8.000000e+00
    endloop
  endfacet
  facet normal -1.000000e+00 6.124467e-16 -1.224647e-16
    outer loop
      vertex 3.240000e+01 4.600000e+00 8.000000e+00
      vertex 3.240000e+01 4.600000e+00 1.500000e+01
      vertex 3.240000e+01 1.490000e+01 1.500000e+01
    endloop
  endfacet
  facet normal -6.123234e-17 1.000000e+00 2.449294e-16
    outer loop
      vertex 3.240000e+01 4.600000e+00 1.500000e+01
      vertex 3.240000e+01 4.600000e+00 8.000000e+00
      vertex 2.290000e+01 4.600000e+00 8.000000e+00
    endloop
  endfacet
  facet normal -6.123234e-17 1.000000e+00 2.449294e-16
    outer loop
      vertex 2.290000e+01 4.600000e+00 8.000000e+00
      vertex 2.290000e+01 4.600000e+00 1.500000e+01
      vertex 3.240000e+01 4.600000e+00 1.500000e+01
    endloop
  endfacet
  facet normal 1.000000e+00 6.123234e-17 1.224647e-16
    outer loop
      vertex 2.290000e+01 4.600000e+00 1.500000e+01
      vertex 2.290000e+01 4.600000e+00 8.000000e+00
      vertex 2.290000e+01 1.490000e+01 8.000000e+00
    endloop
  endfacet
  facet normal 1.000000e+00 6.123234e-17 1.224647e-16
    outer loop
      vertex 2.290000e+01 1.490000e+01 8.000000e+00
      vertex 2.290000e+01 1.490000e+01 1.500000e+01
      vertex 2.290000e+01 4.600000e+00 1.500000e+01
    endloop
  endfacet
  facet normal -6.123234e-17 1.000000e+00 2.449294e-16
    outer loop
      vertex 2.290000e+01 1.490000e+01 1.500000e+01
      vertex 2.290000e+01 1.490000e+01 8.000000e+00
      vertex 4.600000e+00 1.490000e+01 8.000000e+00
    endloop
  endfacet
  facet normal -6.123234e-17 1.000000e+00 2.449294e-16
    outer loop
      vertex 4.600000e+00 1.490000e+01 8.000000e+00
      vertex 4.600000e+00 1.490000e+01 1.500000e+01
      vertex 2.290000e+01 1.490000e+01 1.500000e+01
    endloop
  endfacet
  facet normal -1.000000e+00 1.071874e-16 -1.224647e-16
    outer loop
      vertex 4.600000e+00 1.490000e+01 1.500000e+01
      vertex 4.600000e+00 1.490000e+01 8.000000e+00
      vertex 4.600000e+00 4.600000e+00 8.000000e+00
    endloop
  endfacet
  facet normal -1.000000e+00 1.071874e-16 -1.224647e-16
    outer loop
      vertex 4.600000e+00 4.600000e+00 8.000000e+00
      vertex 4.600000e+00 4.600000e+00 1.500000e+01
      vertex 4.600000e+00 1.490000e+01 1.500000e+01
    endloop
  endfacet
  facet normal -6.123234e-17 1.000000e+00 2.449294e-16
    outer loop
      vertex 4.600000e+00 4.600000e+00 1.500000e+01
      vertex 4.600000e+00 4.600000e+00 8.000000e+00
      vertex -4.900001e+00 4.600000e+00 8.000000e+00
    endloop
  endfacet
  facet normal -6.123234e-17 1.000000e+00 2.449294e-16
    outer loop
      vertex -4.900001e+00 4.600000e+00 8.000000e+00
      vertex -4.900001e+00 4.600000e+00 1.500000e+01
      vertex 4.600000e+00 4.600000e+00 1.500000e+01
    endloop
  endfacet
  facet normal 1.000000e+00 -1.071874e-16 1.224647e-16
    outer loop
      vertex -4.900001e+00 4.600000e+00 1.500000e+01
      vertex -4.900001e+00 4.600000e+00 8.000000e+00
      vertex -4.900001e+00 1.490000e+01 8.000000e+00
    endloop
  endfacet
  facet normal 1.000000e+00 -1.071874e-16 1.224647e-16
    outer loop
      vertex -4.900001e+00 1.490000e+01 8.000000e+00
      vertex -4.900001e+00 1.490000e+01 1.500000e+01
      vertex -4.900001e+00 4.600000e+00 1.500000e+01
    endloop
  endfacet
  facet normal -6.123234e-17 1.000000e+00 2.449294e-16
    outer loop
      vertex -4.900001e+00 1.490000e+01 1.500000e+01
      vertex -4.900001e+00 1.490000e+01 8.000000e+00
      vertex -3.740000e+01 1.490000e+01 8.000000e+00
    endloop
  endfacet
  facet normal -6.123234e-17 1.000000e+00 2.449294e-16
    outer loop
      vertex -3.740000e+01 1.490000e+01 8.000000e+00
      vertex -3.740000e+01 1.490000e+01 1.500000e+01
      vertex -4.900001e+00 1.490000e+01 1.500000e+01
    endloop
  endfacet
  facet normal -1.000000e+00 -6.123234e-17 -1.224647e-16
    outer loop
      vertex -3.740000e+01 1.490000e+01 1.500000e+01
      vertex -3.740000e+01 1.490000e+01 8.000000e+00
      vertex -3.740000e+01 1.050000e+01 8.000000e+00
    endloop
  endfacet
  facet normal -1.000000e+00 -6.123234e-17 -1.224647e-16
    outer loop
      vertex -3.740000e+01 1.050000e+01 8.000000e+00
      vertex -3.740000e+01 1.050000e+01 1.500000e+01
      vertex -3.740000e+01 1.490000e+01 1.500000e+01
    endloop
  endfacet
endsolid Default
